<?xml version="1.0" encoding="UTF-8"?>
<svg width="135px" height="41px" viewBox="0 0 135 41" version="1.1" xmlns="http://www.w3.org/2000/svg" xmlns:xlink="http://www.w3.org/1999/xlink">
    <!-- Generator: Sketch 44.1 (41455) - http://www.bohemiancoding.com/sketch -->
    <title>Page 1</title>
    <desc>Created with Sketch.</desc>
    <defs></defs>
    <g id="Page-1" stroke="none" stroke-width="1" fill="none" fill-rule="evenodd">
        <g transform="translate(0.000000, -1.000000)">
            <g id="Group-28" transform="translate(0.000000, 0.672600)">
                <path d="M130,40.6692 L5,40.6692 C2.239,40.6692 0,38.4302 0,35.6692 L0,5.6692 C0,2.9072 2.239,0.6692 5,0.6692 L130,0.6692 C132.762,0.6692 135,2.9072 135,5.6692 L135,35.6692 C135,38.4302 132.762,40.6692 130,40.6692 Z" id="Fill-1" fill="#040000"></path>
                <path d="M130,0.6692 L5,0.6692 C2.239,0.6692 0,2.9072 0,5.6692 L0,35.6692 C0,38.4302 2.239,40.6692 5,40.6692 L130,40.6692 C132.762,40.6692 135,38.4302 135,35.6692 L135,5.6692 C135,2.9072 132.762,0.6692 130,0.6692 M130,1.4692 C132.319,1.4692 134.2,3.3492 134.2,5.6692 L134.2,35.6692 C134.2,37.9882 132.319,39.8692 130,39.8692 L5,39.8692 C2.68,39.8692 0.8,37.9882 0.8,35.6692 L0.8,5.6692 C0.8,3.3492 2.68,1.4692 5,1.4692 L130,1.4692" id="Fill-3" fill="#AFADA9"></path>
            </g>
            <g transform="translate(19.000000, 7.000000)">
                <g id="Group-3" transform="translate(2.784000, 0.038232)" fill="#F0C53C">
                    <path d="M4.5014688,11.2057015 C5.5681728,11.0362932 6.4318368,10.4391832 7.0924608,9.61456817 C8.2951488,8.1127065 12.1190208,1.87620817 17.1677568,1.13380817 C16.7084448,0.868554833 13.8996288,-0.2105835 10.6104768,0.0505131667 C7.5991968,0.271058167 4.8022848,1.4622815 2.8029888,3.0500315 C2.1750048,3.54849317 1.2053088,4.47093483 0.7245408,5.1755865 C0.1862688,5.9651115 -0.0649152,6.95507483 0.0945408,7.97548817 C0.4256448,10.0930198 2.3986368,11.5390565 4.5014688,11.2057015" id="Fill-1"></path>
                </g>
                <path d="M7.3599072,11.2564418 C8.4048672,11.0764485 9.2448672,10.4789035 9.8823552,9.66086183 C11.0434272,8.1713735 14.7152352,2.00027017 19.6607232,1.20509017 C19.2064992,0.9509535 16.4358912,-0.0714415 13.2110592,0.227886833 C10.2586752,0.484005167 7.5291552,1.69011517 5.5874592,3.27467517 C4.9775232,3.77231517 4.0377792,4.69002017 3.5751072,5.38834017 C3.0569472,6.17018017 2.8231872,7.14501517 2.9930592,8.14450017 C3.3454272,10.2181935 5.3006112,11.6114018 7.3599072,11.2564418" id="Fill-4" fill="#F7D923"></path>
                <path d="M17.588592,7.317135 C17.753424,8.391875 18.344016,9.26318 19.161024,9.93100167 C20.648928,11.1463917 26.830896,15.0154267 27.553296,20.10106 C27.81792,19.63967 28.898352,16.8144417 28.648608,13.5020617 C28.438704,10.4690967 27.263664,7.64923333 25.693056,5.63122 C25.199568,4.99747333 24.28656,4.01814333 23.58792,3.53195833 C22.80576,2.987725 21.823296,2.73160667 20.809104,2.88951167 C18.7056,3.21629333 17.263728,5.198975 17.588592,7.317135" id="Fill-6" fill="#41AF35"></path>
                <path d="M17.713656,7.383168 C17.875992,8.44147467 18.457752,9.30001967 19.262472,9.95740133 C20.727864,11.1544247 26.81676,14.965363 27.528456,19.9747747 C27.789048,19.5197163 28.853208,16.7373113 28.60716,13.474763 C28.400568,10.487618 27.243192,7.70994967 25.696296,5.72257967 C25.2102,5.097968 24.311016,4.13381467 23.622696,3.65468633 C22.8522,3.118718 21.884664,2.86646633 20.885784,3.02180967 C18.814056,3.34409633 17.393736,5.29652133 17.713656,7.383168" id="Fill-8" fill="#48AF3C"></path>
                <g id="Group-12" transform="translate(0.000000, 8.883232)" fill="#0C98CE">
                    <path d="M11.0920464,12.8377055 C10.9278864,11.7628205 10.3379664,10.8910322 9.5214384,10.2225822 C8.0343984,9.00617717 1.8553104,5.13279217 1.1363184,0.0465305 C0.8715504,0.508162167 -0.2109936,3.33227883 0.0364944,6.6453355 C0.2442384,9.67805883 1.4172624,12.4987922 2.9864304,14.5179172 C3.4794384,15.1521472 4.3917264,16.1315738 5.0900784,16.6185805 C5.8719024,17.1634905 6.8541744,17.4200438 7.8682224,17.2632505 C9.9720624,16.9374355 11.4154224,14.9561072 11.0920464,12.8377055" id="Fill-10"></path>
                </g>
                <path d="M10.9732656,21.6478717 C10.7907696,20.6087533 10.1996016,19.7768883 9.3931536,19.1471533 C7.9247376,18.0003483 1.8486576,14.3816317 1.0402896,9.46579333 C0.7935696,9.91925667 -0.1943184,12.6811683 0.1182096,15.8884233 C0.3858096,18.8241417 1.5849456,21.533515 3.1504656,23.4566983 C3.6424656,24.06043 4.5484656,24.990315 5.2363056,25.4468717 C6.0061776,25.9581417 6.9643536,26.1850183 7.9441776,26.0101 C9.9770256,25.647745 11.3331216,23.6946917 10.9732656,21.6478717" id="Fill-13" fill="#1B9BCC"></path>
                <path d="M21.5231856,17.8012198 C20.4560016,17.9692748 19.5917616,18.5657565 18.9305136,19.3895498 C17.7261936,20.8903482 13.8964176,27.1231732 8.8470576,27.8606915 C9.3059856,28.1261382 12.1138416,29.2085632 15.4032816,28.9501248 C18.4142736,28.7328182 21.2126256,27.5443498 23.2133616,25.9585332 C23.8420176,25.4605065 24.8122896,24.5391282 25.2940176,23.8346698 C25.8332016,23.0457732 26.0852496,22.0560515 25.9267536,21.0354448 C25.5975696,18.9179132 23.6261136,17.4699432 21.5231856,17.8012198" id="Fill-15" fill="#D31C27"></path>
                <g id="Group-19" transform="translate(8.832000, 17.824898)" fill="#D2182C">
                    <path d="M12.583608,0.0712868333 C11.525496,0.238085167 10.668648,0.8292985 10.01292,1.6462285 C8.819016,3.13402517 5.021688,9.31407017 0.015048,10.0451602 C0.470136,10.3087218 3.254088,11.3817218 6.51564,11.1258935 C9.501192,10.9102785 12.275784,9.73138017 14.25948,8.1596285 C14.882808,7.6656135 15.84492,6.7519685 16.322424,6.05345517 C16.857048,5.2713735 17.106936,4.29020683 16.949784,3.27786517 C16.623336,1.17841017 14.668632,-0.2571865 12.583608,0.0712868333" id="Fill-17"></path>
                </g>
                <path d="M52.926512,6 L50.943008,6 L50.73224,7.551935 L44.463248,7.551935 L44.455664,7.551935 L44.285408,8.80449333 L43.301552,16.0413467 C43.013072,18.1626967 42.506912,19.671615 41.191232,20.7060933 L41,22.11298 C43.418144,20.8880683 44.772992,19.1559467 45.179984,16.8136167 C45.61712,13.5989667 45.83168,12.0219467 46.268576,8.80686167 L58.821536,8.80686167 L58.992464,7.551935 L52.715792,7.551935 L52.926512,6 Z M55.813088,10.9512667 C54.79928,14.4489567 53.340368,17.80126 51.45536,20.8573767 L43.671152,20.8573767 L43.500608,22.11298 L57.01304,22.11298 L57.184016,20.8573767 L53.072576,20.8573767 C54.944,18.246265 56.502848,14.8935267 57.724736,10.9512667 L55.813088,10.9512667 Z M51.651632,11.3204367 L50.034896,11.3204367 C50.463104,13.931935 50.677232,16.3219217 50.677664,18.4886567 L52.513568,18.4886567 C52.443392,16.1236583 52.154384,13.7333817 51.651632,11.3204367 L51.651632,11.3204367 Z M48.137696,11.3204367 L46.595696,11.3204367 C47.023952,13.931935 47.238032,16.3219217 47.2352,18.4886567 L49.146848,18.4886567 C48.969536,15.8268433 48.632864,13.440095 48.137696,11.3204367 L48.137696,11.3204367 Z M64.731296,12.4023783 L69.025904,12.4023783 L68.583728,15.6566617 L64.28864,15.6566617 L64.731296,12.4023783 Z M65.343968,7.89234667 L69.639104,7.89234667 L69.1964,11.1463883 L64.901792,11.1463883 L65.343968,7.89234667 Z M71.0096,12.4023783 L75.30416,12.4023783 L74.86208,15.6566617 L70.566896,15.6566617 L71.0096,12.4023783 Z M71.622608,7.89234667 L75.91736,7.89234667 L75.474704,11.1463883 L71.180048,11.1463883 L71.622608,7.89234667 Z M62.154464,16.7635917 C61.866272,18.8849417 61.359776,20.3942467 60.044336,21.4283383 L59.853152,22.834935 C62.481008,21.5038833 63.853328,19.573885 64.118096,16.9120233 L68.412848,16.9120233 L67.619552,22.7497233 L69.603104,22.7497233 L70.3964,16.9120233 L74.691632,16.9120233 L74.18888,20.60788 C74.101664,21.2501817 73.750016,21.4943133 72.965168,21.4943133 L72.012752,21.4943133 L71.842256,22.7497233 L73.384112,22.7497233 C74.997824,22.7497233 75.9884,21.9612617 76.203008,20.3838067 L78.071888,6.63693667 L63.531344,6.63693667 L62.154464,16.7635917 Z M97.060352,10.5824833 L97.472048,7.551935 L90.457088,7.551935 L90.668288,6 L88.68464,6 L88.473536,7.551935 L81.459008,7.551935 L80.735888,12.8719367 L81.472016,12.8719367 L82.719488,12.8719367 L87.750416,12.8719367 L87.298496,16.1990583 L81.530432,16.1990583 L81.359888,17.4546617 L87.12752,17.4546617 L86.665088,20.8573767 L79.65008,20.8573767 L79.479584,22.11298 L91.528928,22.11298 L91.821296,22.11298 L93.070256,22.11298 C94.684496,22.11298 95.600144,21.3241317 95.814272,19.7472567 L95.903936,19.0892467 L93.919952,19.0892467 L93.800144,19.971185 C93.713072,20.6130033 93.36176,20.8573767 92.576528,20.8573767 L91.992176,20.8573767 L91.699424,20.8573767 L88.648592,20.8573767 L89.111552,17.4546617 L94.878752,17.4546617 L95.049248,16.1990583 L89.281664,16.1990583 L89.73392,12.8719367 L95.501552,12.8719367 L95.672528,11.6169617 L82.889936,11.6169617 L83.271632,8.80686167 L95.317568,8.80686167 L95.07632,10.5824833 L97.060352,10.5824833 Z" id="Fill-20" fill="#FFFFFF"></path>
            </g>
        </g>
    </g>
</svg>